<svg width="48" height="48" viewBox="0 0 48 48" fill="none" xmlns="http://www.w3.org/2000/svg">
<g clip-path="url(#clip0_54696_149)">
<path fill-rule="evenodd" clip-rule="evenodd" d="M24 14C18.48 14 14 18.48 14 24C14 29.52 18.48 34 24 34C29.52 34 34 29.52 34 24C34 18.48 29.52 14 24 14ZM30.36 28.83C28.93 27.09 25.46 26.5 24 26.5C22.54 26.5 19.07 27.09 17.64 28.83C16.62 27.49 16 25.82 16 24C16 19.59 19.59 16 24 16C28.41 16 32 19.59 32 24C32 25.82 31.38 27.49 30.36 28.83ZM20.5 21.5C20.5 19.56 22.06 18 24 18C25.94 18 27.5 19.56 27.5 21.5C27.5 23.44 25.94 25 24 25C22.06 25 20.5 23.44 20.5 21.5Z" fill="#49454F"/>
</g>
<defs>
<clipPath id="clip0_54696_149">
<rect x="4" y="4" width="40" height="40" rx="20" fill="white"/>
</clipPath>
</defs>
</svg>
